<svg xmlns="http://www.w3.org/2000/svg" viewBox="0 0 24 24" role="img" aria-hidden="true">
  <circle cx="12" cy="12" r="11" fill="#ffffff"/>
  <path d="M20 12.2c0-.7-.1-1.2-.2-1.8H12v3.3h4.5c-.2 1-.8 1.9-1.7 2.5v2h2.7c1.6-1.4 2.5-3.6 2.5-6z" fill="#4285f4"/>
  <path d="M12 20c2.2 0 4.1-.7 5.5-1.9l-2.7-2c-.7.5-1.7.9-2.8.9-2.1 0-3.9-1.4-4.5-3.3H4.7v2.1C6.1 18.3 8.8 20 12 20z" fill="#34a853"/>
  <path d="M7.5 13.7c-.2-.5-.3-1.1-.3-1.7s.1-1.1.3-1.7V8.2H4.7C4.2 9.3 4 10.6 4 12s.2 2.7.7 3.8l2.8-2.1z" fill="#fbbc04"/>
  <path d="M12 7c1.2 0 2.3.4 3.1 1.2l2.3-2.3C16.1 4.7 14.2 4 12 4 8.8 4 6.1 5.7 4.7 8.2l2.8 2.1C8.1 8.4 9.9 7 12 7z" fill="#ea4335"/>
</svg>
